<svg xmlns="http://www.w3.org/2000/svg" viewBox="0 0 64 64" role="img" aria-label="PhSeCl sakura icon">
  <defs>
    <radialGradient id="petal" cx="50%" cy="45%" r="70%">
      <stop offset="0%" stop-color="#fff0f5" />
      <stop offset="100%" stop-color="#d4789a" />
    </radialGradient>
  </defs>
  <rect width="64" height="64" rx="16" fill="#0a0608" />
  <path
    d="M32 14c3 7 8 8 13 7-1 4-3 8-7 11 5 0 9 2 12 7-7 3-12 2-16-1 1 5 0 10-4 14-4-4-5-9-4-14-4 3-9 4-16 1 3-5 7-7 12-7-4-3-6-7-7-11 5 1 10 0 13-7Z"
    fill="url(#petal)"
  />
</svg>

